# xmcd
#
# Track frame offsets: 
#        150
#        48245
#        91627
#        113170
#        132257
#        151137
#
# Disc length: 2299 seconds
#
# Revision: 2
# Processed by: cddbd v1.5.2PL0 Copyright (c) Steve Scherf et al.
# Submitted via: ExactAudioCopy v0.99pb5
#
DISCID=3c08f906
DTITLE=Brainstorm - Funky Entertainment
DYEAR=1979
DGENRE=Funk
TTITLE0=Hot For You
TTITLE1=A Case Of The Boogie
TTITLE2=Popcorn
TTITLE3=Funky Entertainment
TTITLE4=You Put A Charge In My  Life
TTITLE5=Don't Let Me Catch You With Your Groove Down
EXTD=
EXTT0=
EXTT1=
EXTT2=
EXTT3=
EXTT4=
EXTT5=
PLAYORDER=
